<svg width="62" height="32" viewBox="0 0 62 32" fill="none" xmlns="http://www.w3.org/2000/svg">
<path fill-rule="evenodd" clip-rule="evenodd" d="M25.3505 4.49471C23.8648 5.21111 24.6938 5.42935 26.2253 5.83254C29.0988 6.58901 34.4454 7.99651 31.6169 14.5666C27.2809 24.6385 40.6685 25.9814 44.8461 25.6322C54.3189 24.8405 62.2528 23.6179 61.5566 9.57167C60.8603 -4.47452 35.0983 -0.205503 25.3505 4.49471ZM41.7054 13.9679L41.657 14.1017L41.5914 14.1583C41.5067 14.2309 41.4267 14.3012 41.3514 14.3693C41.2762 14.4374 41.2197 14.485 41.1821 14.5122C41.0786 14.6029 40.9751 14.7005 40.8716 14.8048C40.7681 14.9092 40.6646 14.9977 40.5611 15.0702C40.4294 15.161 40.3 15.2494 40.173 15.3356C40.0459 15.4218 39.9166 15.5012 39.7848 15.5738C39.6437 15.6736 39.5049 15.7666 39.3685 15.8528C39.2321 15.939 39.0839 16.023 38.9239 16.1046C38.8298 16.1409 38.7428 16.184 38.6628 16.2339C38.5829 16.2838 38.5005 16.3315 38.4158 16.3768L37.8654 16.6082C37.809 16.6264 37.7737 16.64 37.7596 16.6491C37.7455 16.6581 37.736 16.6627 37.7313 16.6627H37.6961C37.6772 16.6627 37.6396 16.6672 37.5832 16.6763C37.442 16.6944 37.2821 16.7171 37.1033 16.7443C36.9245 16.7716 36.7881 16.7489 36.694 16.6763C36.6187 16.6309 36.5623 16.5878 36.5246 16.547C36.487 16.5061 36.4447 16.4449 36.3976 16.3632C36.3412 16.2634 36.3059 16.1523 36.2918 16.0298C36.2777 15.9073 36.2612 15.7916 36.2424 15.6827C36.2518 15.6101 36.2541 15.5443 36.2494 15.4854C36.2447 15.4264 36.2518 15.3606 36.2706 15.288C36.2894 15.161 36.3059 15.0453 36.32 14.9409C36.3341 14.8366 36.3506 14.7277 36.3694 14.6143C36.3882 14.5009 36.4164 14.3784 36.4541 14.2468C36.4917 14.1152 36.5435 13.9633 36.6093 13.7909C36.6846 13.5822 36.7693 13.378 36.8634 13.1784C36.9575 12.9788 37.0657 12.7837 37.188 12.5931C37.3667 12.2756 37.5502 11.9739 37.7384 11.688C37.9266 11.4022 38.1242 11.1141 38.3312 10.8238C38.4723 10.6242 38.6111 10.4359 38.7475 10.2589C38.8839 10.082 39.0321 9.91641 39.1921 9.76216C39.3709 9.56253 39.5449 9.36972 39.7143 9.18371C39.8836 8.9977 40.0718 8.8185 40.2788 8.6461C40.3823 8.55536 40.4505 8.48731 40.4835 8.44194C40.5164 8.39657 40.5846 8.33306 40.6881 8.25139C40.7916 8.20602 40.8739 8.15385 40.9351 8.09487C40.9962 8.03589 41.0692 7.97918 41.1538 7.92474C41.2291 7.87937 41.3067 7.83174 41.3867 7.78183C41.4667 7.73193 41.5537 7.6979 41.6478 7.67975C41.7795 7.64346 41.8689 7.67295 41.916 7.76822C41.963 7.86349 41.9677 7.96557 41.9301 8.07446C41.8924 8.19242 41.8454 8.29449 41.7889 8.38069C41.7325 8.46689 41.6855 8.5599 41.6478 8.65971C41.5725 8.81396 41.509 8.93645 41.4573 9.02719C41.4055 9.11793 41.3326 9.23588 41.2385 9.38106C41.1915 9.45365 41.1468 9.53078 41.1044 9.61244C41.0621 9.6941 41.0221 9.77577 40.9845 9.85743C40.9092 9.95724 40.8386 10.0525 40.7728 10.1432C40.7069 10.234 40.6505 10.3293 40.6034 10.4291C40.5093 10.5742 40.4223 10.7126 40.3423 10.8442C40.2623 10.9758 40.2177 11.1232 40.2082 11.2865C40.2177 11.3138 40.2224 11.3614 40.2224 11.4294C40.2224 11.4975 40.2365 11.5406 40.2647 11.5587C40.3117 11.5769 40.3447 11.6109 40.3635 11.6608C40.3823 11.7107 40.4105 11.7584 40.4482 11.8037C40.467 11.8219 40.4952 11.8355 40.5329 11.8446C40.5705 11.8536 40.6128 11.8627 40.6599 11.8718C40.7069 11.8718 40.7798 11.8763 40.8786 11.8854C40.9774 11.8945 41.0598 11.899 41.1256 11.899L41.4502 11.7901C41.5067 11.772 41.5584 11.7334 41.6055 11.6744C41.6525 11.6154 41.6996 11.5633 41.7466 11.5179C41.7842 11.4635 41.8125 11.4068 41.8313 11.3478C41.8501 11.2888 41.8736 11.2276 41.9019 11.164C41.9489 11.1005 41.9748 11.0393 41.9795 10.9803C41.9842 10.9213 42.0054 10.8555 42.043 10.7829C42.0712 10.7285 42.0971 10.6741 42.1206 10.6196C42.1441 10.5652 42.1794 10.5017 42.2265 10.4291C42.2829 10.2567 42.3582 10.1024 42.4523 9.96631C42.4523 9.94817 42.457 9.93456 42.4664 9.92548C42.5134 9.84382 42.5628 9.75989 42.6146 9.67369C42.6663 9.58749 42.7063 9.50356 42.7345 9.42189C42.7628 9.37653 42.7981 9.32889 42.8404 9.27898C42.8827 9.22908 42.9133 9.16783 42.9321 9.09524C42.9604 8.98636 43.0051 8.87521 43.0662 8.76179C43.1274 8.64837 43.1768 8.53721 43.2144 8.42833C43.2897 8.28315 43.3508 8.13117 43.3979 7.97238C43.4449 7.81359 43.4732 7.648 43.4826 7.4756C43.4732 7.40301 43.4661 7.32588 43.4614 7.24422C43.4567 7.16255 43.4543 7.08543 43.4543 7.01284C43.4543 6.94025 43.4449 6.89035 43.4261 6.86312C43.4073 6.8359 43.3791 6.77693 43.3414 6.68619C43.3132 6.6136 43.2732 6.56596 43.2215 6.54328C43.1697 6.52059 43.1062 6.46842 43.0309 6.38676C42.9839 6.34139 42.918 6.30736 42.8333 6.28468C42.7487 6.26199 42.6781 6.24158 42.6216 6.22343C42.537 6.18714 42.417 6.16219 42.2617 6.14857C42.1065 6.13496 41.9865 6.13723 41.9019 6.15538C41.7984 6.16445 41.6972 6.1758 41.5984 6.18941C41.4996 6.20302 41.3891 6.22797 41.2668 6.26426C41.1444 6.30963 41.0221 6.3618 40.8998 6.42078C40.7775 6.47976 40.6458 6.54555 40.5046 6.61814C40.4294 6.6635 40.3541 6.71341 40.2788 6.76785C40.2035 6.82229 40.1283 6.8722 40.053 6.91757C39.9777 6.96293 39.9025 7.01284 39.8272 7.06728C39.7519 7.12172 39.6908 7.17617 39.6437 7.23061L39.0368 7.74781C38.971 7.82039 38.9028 7.89752 38.8322 7.97918C38.7616 8.06085 38.6887 8.13797 38.6134 8.21056C38.5288 8.28315 38.4488 8.36028 38.3735 8.44194C38.2982 8.5236 38.2324 8.6098 38.1759 8.70054L37.5267 9.38106C37.442 9.48087 37.3597 9.58976 37.2797 9.70771C37.1997 9.82567 37.1127 9.93909 37.0186 10.048C36.9433 10.1478 36.8704 10.2499 36.7999 10.3542C36.7293 10.4586 36.6564 10.5652 36.5811 10.6741L36.2142 11.2457C36.1671 11.3274 36.1154 11.409 36.0589 11.4907C36.0025 11.5724 35.9507 11.6585 35.9037 11.7493C35.8472 11.9217 35.7578 12.085 35.6355 12.2393C35.5979 12.3481 35.5555 12.4548 35.5085 12.5591C35.4614 12.6635 35.4144 12.7791 35.3673 12.9062C35.2074 13.1784 35.0945 13.4506 35.0286 13.7228C34.9722 13.8771 34.9275 14.0222 34.8945 14.1583C34.8616 14.2944 34.8169 14.4305 34.7605 14.5667C34.7605 14.612 34.7511 14.6801 34.7322 14.7708C34.7322 14.8434 34.7252 14.9137 34.7111 14.9818C34.697 15.0498 34.6852 15.1111 34.6758 15.1655C34.657 15.2472 34.6476 15.3288 34.6476 15.4105C34.6476 15.4922 34.6382 15.5693 34.6193 15.6419C34.6005 15.7871 34.5935 15.9277 34.5982 16.0638C34.6029 16.1999 34.6193 16.3406 34.6476 16.4857C34.6664 16.5855 34.6899 16.6717 34.7181 16.7443C34.7464 16.8169 34.7793 16.8986 34.8169 16.9893C34.864 17.0619 34.9016 17.1322 34.9298 17.2003C34.9581 17.2683 35.0098 17.3341 35.0851 17.3976C35.1227 17.443 35.1509 17.4838 35.1698 17.5201C35.2733 17.6199 35.3768 17.7016 35.4803 17.7651C35.5179 17.8105 35.5743 17.8559 35.6496 17.9012C35.7155 17.9194 35.7907 17.9375 35.8754 17.9557C35.9601 17.9738 36.026 17.992 36.073 18.0101C36.1765 18.0283 36.28 18.0351 36.3835 18.0305C36.487 18.026 36.5905 18.0328 36.694 18.0509C36.8351 18.0691 36.9692 18.0691 37.0962 18.0509C37.2233 18.0328 37.3526 18.0146 37.4844 17.9965L37.936 17.9148C37.983 17.9148 38.016 17.9012 38.0348 17.874C38.1195 17.8377 38.1994 17.8082 38.2747 17.7855C38.35 17.7628 38.43 17.7379 38.5146 17.7107C38.5523 17.6925 38.5899 17.6721 38.6275 17.6494C38.6652 17.6267 38.7028 17.6063 38.7405 17.5882C38.8157 17.5247 38.8981 17.4838 38.9874 17.4657C39.0768 17.4475 39.1592 17.4158 39.2344 17.3704C39.2909 17.3341 39.345 17.3024 39.3967 17.2751C39.4485 17.2479 39.512 17.2207 39.5873 17.1935C39.6343 17.1481 39.6837 17.1118 39.7354 17.0846C39.7872 17.0574 39.8413 17.0301 39.8978 17.0029L40.0812 16.8668C40.1565 16.8124 40.2365 16.7602 40.3212 16.7103C40.4058 16.6604 40.4952 16.6082 40.5893 16.5538L40.801 16.3768L41.0464 16.1867C41.0491 16.1971 41.0523 16.2083 41.0562 16.2204C41.075 16.2794 41.0938 16.3225 41.1126 16.3497C41.1597 16.3951 41.195 16.4269 41.2185 16.445C41.242 16.4632 41.2679 16.4949 41.2961 16.5403C41.3996 16.6673 41.5313 16.7308 41.6913 16.7308C41.8512 16.7308 42.0112 16.7036 42.1711 16.6492C42.237 16.631 42.2676 16.5993 42.2629 16.5539C42.2582 16.5085 42.2888 16.4632 42.3546 16.4178C42.3923 16.3815 42.4205 16.3633 42.4393 16.3633C42.4581 16.3633 42.4769 16.327 42.4958 16.2545C42.4958 16.1728 42.5146 16.1025 42.5522 16.0435C42.5898 15.9845 42.6181 15.9187 42.6369 15.8461C42.6557 15.7463 42.691 15.6443 42.7427 15.5399C42.7945 15.4356 42.8486 15.3426 42.905 15.2609C42.9239 15.1974 42.938 15.1452 42.9474 15.1044C42.9568 15.0635 42.9662 15.025 42.9756 14.9887C42.985 14.9524 42.9991 14.9161 43.018 14.8798C43.0368 14.8435 43.065 14.7981 43.1026 14.7437C43.1309 14.6802 43.145 14.6462 43.145 14.6416C43.145 14.6371 43.1426 14.6393 43.1379 14.6484C43.1426 14.6393 43.1591 14.6031 43.1873 14.5395C43.2344 14.4579 43.2696 14.3762 43.2932 14.2945C43.3167 14.2129 43.3614 14.1267 43.4272 14.0359C43.5872 13.7184 43.8224 13.3736 44.1329 13.0016L44.3023 12.7974C44.3775 12.7067 44.4528 12.6137 44.5281 12.5184C44.6034 12.4231 44.6786 12.3346 44.7539 12.253C44.8292 12.1713 44.8856 12.1123 44.9233 12.076C45.2149 11.7948 45.429 11.6178 45.5654 11.5452C45.7019 11.4726 45.7842 11.4613 45.8124 11.5112C45.8406 11.5611 45.8289 11.6496 45.7771 11.7766C45.7254 11.9036 45.6572 12.0261 45.5725 12.1441C45.3749 12.4345 45.2008 12.7248 45.0503 13.0152C44.8997 13.3055 44.7586 13.6412 44.6269 14.0223C44.5516 14.231 44.4834 14.4284 44.4222 14.6144C44.3611 14.8004 44.3164 14.9932 44.2882 15.1928C44.2693 15.2927 44.2599 15.3947 44.2599 15.4991C44.2599 15.6034 44.2693 15.7055 44.2882 15.8053C44.307 15.9323 44.3352 16.0571 44.3728 16.1796C44.4105 16.3021 44.4857 16.3996 44.5987 16.4722L44.7539 16.6083C44.8386 16.6809 44.9327 16.7172 45.0362 16.7172H45.3608C45.4172 16.7172 45.4831 16.7127 45.5584 16.7036C45.6336 16.6945 45.7136 16.6855 45.7983 16.6764C45.883 16.6673 45.9606 16.6514 46.0312 16.6287C46.1017 16.6061 46.1605 16.5811 46.2076 16.5539C46.3111 16.4813 46.4075 16.4178 46.4969 16.3633C46.5863 16.3089 46.678 16.2454 46.7721 16.1728C46.7909 16.1546 46.8098 16.1342 46.8286 16.1115C46.8474 16.0889 46.8709 16.073 46.8991 16.0639L46.9979 16.0163C47.0194 16.0059 47.0354 15.9839 47.0459 15.95C47.0921 16.0467 47.1472 16.139 47.2112 16.2271C47.277 16.3179 47.3476 16.395 47.4229 16.4585C47.4981 16.5311 47.5922 16.5923 47.7051 16.6422C47.818 16.6921 47.9309 16.7262 48.0438 16.7443C48.1191 16.7625 48.2414 16.7761 48.4108 16.7851C48.5802 16.7942 48.6978 16.7988 48.7636 16.7988C49.2529 16.7806 49.7586 16.6286 50.2808 16.3428C50.803 16.057 51.2993 15.7099 51.7698 15.3016C51.7792 15.3742 51.7886 15.4445 51.798 15.5126C51.8074 15.5806 51.8262 15.6509 51.8545 15.7235C51.8733 15.7508 51.885 15.7848 51.8897 15.8256C51.8945 15.8664 51.9062 15.905 51.925 15.9413C51.9721 16.0411 52.0285 16.1364 52.0944 16.2271C52.1603 16.3179 52.2308 16.395 52.3061 16.4585C52.3814 16.5311 52.4755 16.5923 52.5884 16.6422C52.7013 16.6921 52.8142 16.7262 52.9271 16.7443C53.0024 16.7625 53.1247 16.7761 53.294 16.7851C53.4634 16.7942 53.581 16.7988 53.6469 16.7988C54.0703 16.7806 54.5078 16.6627 54.9594 16.4449C55.411 16.2271 55.8462 15.9526 56.2649 15.6215C56.6836 15.2903 57.0694 14.9273 57.4222 14.5326C57.775 14.1379 58.0644 13.75 58.2902 13.3689C58.3372 13.3054 58.3937 13.2169 58.4595 13.1035C58.5254 12.9901 58.5724 12.888 58.6007 12.7973C58.6101 12.7701 58.5889 12.7746 58.5372 12.8109C58.4854 12.8472 58.4595 12.8608 58.4595 12.8517L58.6854 12.2529C58.6665 12.2529 58.6524 12.2506 58.643 12.2461L58.6007 12.2256C58.6101 12.1984 58.6101 12.1735 58.6007 12.1508C58.5913 12.1281 58.5819 12.1077 58.5724 12.0895L58.5442 12.0623C58.5348 12.0532 58.5254 12.0487 58.516 12.0487C58.4972 11.967 58.4548 11.9353 58.389 11.9534C58.3231 11.9716 58.2808 11.9943 58.262 12.0215C58.262 12.0033 58.2478 11.9943 58.2196 11.9943C58.182 12.0215 58.1443 12.0215 58.1067 11.9943C58.0879 11.9761 58.0714 11.9738 58.0573 11.9875C58.0432 12.0011 58.0338 12.0192 58.0291 12.0419L58.015 12.1099C58.0103 12.1326 58.0079 12.1394 58.0079 12.1304C57.9515 12.1304 57.9115 12.1417 57.8879 12.1644C57.8644 12.1871 57.8385 12.2211 57.8103 12.2665L57.5986 12.634C57.5045 12.7973 57.434 12.9062 57.3869 12.9606C57.274 13.1058 57.1352 13.2759 56.9706 13.471C56.8059 13.6661 56.6248 13.8612 56.4272 14.0562C56.2296 14.2513 56.0273 14.4396 55.8203 14.6211C55.6133 14.8026 55.4157 14.9568 55.2276 15.0838C55.03 15.2109 54.8324 15.3243 54.6348 15.4241C54.4372 15.5239 54.2349 15.6146 54.0279 15.6963C53.9621 15.7145 53.875 15.7303 53.7668 15.7439C53.6586 15.7576 53.5763 15.7644 53.5198 15.7644C53.4446 15.7553 53.3693 15.7303 53.294 15.6895C53.2188 15.6487 53.1717 15.592 53.1529 15.5194C53.1341 15.4468 53.1153 15.3833 53.0964 15.3288C53.0776 15.2744 53.0682 15.2199 53.0682 15.1655C53.0682 15.0748 53.0776 14.9659 53.0964 14.8388C53.1153 14.7118 53.1435 14.5825 53.1811 14.4509C53.2188 14.3194 53.2587 14.1924 53.3011 14.0699C53.3434 13.9474 53.3881 13.8362 53.4352 13.7364H53.4634C53.5104 13.7545 53.5598 13.8045 53.6116 13.8861C53.6633 13.9678 53.7174 14.0131 53.7739 14.0222C53.7927 14.0404 53.835 14.0494 53.9009 14.0494H54.042C54.2208 14.0676 54.3384 14.0676 54.3949 14.0494C54.4513 14.0313 54.5313 13.9905 54.6348 13.9269C54.8512 13.7818 55.0723 13.598 55.2981 13.3757C55.524 13.1534 55.7262 12.9062 55.905 12.634C56.0838 12.3617 56.2249 12.0759 56.3284 11.7765C56.4319 11.4771 56.4695 11.1776 56.4413 10.8782C56.4225 10.6786 56.3425 10.5016 56.2014 10.3474C56.1543 10.2748 56.0932 10.2249 56.0179 10.1977C55.9897 10.1614 55.9332 10.1364 55.8486 10.1228C55.7639 10.1092 55.6745 10.1024 55.5804 10.1024C55.4863 10.1024 55.3946 10.1069 55.3052 10.116C55.2158 10.1251 55.1476 10.1296 55.1005 10.1296C54.4513 10.3383 53.8891 10.7285 53.414 11.3001C52.9388 11.8718 52.5225 12.5477 52.165 13.3281C51.9203 13.6094 51.631 13.9088 51.297 14.2264C50.963 14.544 50.6454 14.8071 50.3443 15.0158C49.9492 15.2789 49.554 15.4876 49.1588 15.6419C49.0929 15.66 49.0106 15.6691 48.9118 15.6691H48.6789C48.6037 15.66 48.5237 15.6419 48.439 15.6146C48.3543 15.5874 48.3026 15.5375 48.2838 15.4649C48.2461 15.347 48.2273 15.229 48.2273 15.1111C48.2273 14.9494 48.2553 14.7644 48.3113 14.556L48.3599 14.4987C48.4681 14.3717 48.5692 14.2356 48.6633 14.0904C48.6821 14.0632 48.6986 14.0405 48.7127 14.0223C48.7256 14.0058 48.7404 13.9817 48.7572 13.95C48.7962 13.9901 48.8406 14.0142 48.8906 14.0222C48.9095 14.0404 48.9165 14.0517 48.9118 14.0562C48.9071 14.0608 48.9142 14.0631 48.933 14.0631C48.9518 14.0631 48.9659 14.0653 48.9753 14.0699C48.9847 14.0744 48.9941 14.0767 49.0036 14.0767C49.1823 14.0948 49.3258 14.0925 49.434 14.0699C49.5422 14.0472 49.6481 14.0041 49.7516 13.9406C50.2314 13.623 50.6054 13.2714 50.8736 12.8857C51.1417 12.5001 51.3793 12.0487 51.5863 11.5315C51.5863 11.4952 51.6051 11.4589 51.6428 11.4226C51.671 11.2956 51.6898 11.1822 51.6992 11.0824C51.7086 10.9825 51.6992 10.8782 51.671 10.7693C51.6522 10.5697 51.5722 10.3928 51.4311 10.2385C51.384 10.1659 51.3229 10.116 51.2476 10.0888C51.1817 10.0162 51.0759 9.97084 50.93 9.95269C50.7842 9.93454 50.6595 9.93 50.556 9.93908C50.1609 10.0298 49.8033 10.1841 49.4834 10.4018C49.1635 10.6196 48.8695 10.8827 48.6013 11.1912C48.3332 11.4997 48.0909 11.8377 47.8745 12.2052C47.6581 12.5727 47.4605 12.9515 47.2817 13.3417L47.0841 14.0222C47.0653 14.0767 47.0512 14.1379 47.0418 14.206C47.0324 14.274 47.0183 14.3353 46.9995 14.3897C46.9941 14.4103 46.9891 14.4308 46.9846 14.451L46.9556 14.4851C46.9085 14.5395 46.8403 14.6167 46.7509 14.7165C46.6616 14.8163 46.5651 14.9206 46.4616 15.0295C46.3581 15.1384 46.2546 15.2382 46.1511 15.3289C46.0476 15.4197 45.9677 15.4787 45.9112 15.5059C45.7983 15.5694 45.716 15.5966 45.6642 15.5875C45.6125 15.5785 45.5772 15.5512 45.5584 15.5059C45.5395 15.4605 45.5348 15.4038 45.5443 15.3357C45.5537 15.2677 45.5678 15.2065 45.5866 15.152C45.7089 14.6983 45.8406 14.315 45.9818 14.0019C46.1229 13.6889 46.2781 13.3736 46.4475 13.056C46.504 12.929 46.5651 12.8087 46.631 12.6953C46.6968 12.5819 46.7768 12.4481 46.8709 12.2938C46.9556 12.1486 47.0497 11.9785 47.1532 11.7834C47.2567 11.5883 47.3178 11.3728 47.3367 11.1369V10.96C47.3178 10.8148 47.2684 10.69 47.1885 10.5857C47.1085 10.4813 47.0215 10.3838 46.9274 10.2931C46.8803 10.2386 46.798 10.2023 46.6804 10.1842C46.5628 10.166 46.4663 10.1479 46.3911 10.1297C46.297 10.1116 46.2264 10.1071 46.1794 10.1161C46.1323 10.1252 46.0712 10.1388 45.9959 10.157C45.9112 10.1751 45.8477 10.1955 45.8053 10.2182C45.763 10.2409 45.6478 10.3067 45.4596 10.4156C45.3937 10.4519 45.309 10.5131 45.2055 10.5993C45.102 10.6855 44.9938 10.783 44.8809 10.8919C44.768 11.0008 44.6551 11.1165 44.5422 11.239C44.4293 11.3615 44.3305 11.4772 44.2458 11.5861C44.2364 11.5951 44.2199 11.6156 44.1964 11.6473C44.1729 11.6791 44.1447 11.7131 44.1117 11.7494C44.0788 11.7857 44.0482 11.8174 44.02 11.8447C43.9918 11.8719 43.973 11.8855 43.9635 11.8855L44.02 11.7222C44.0388 11.6768 44.0576 11.6269 44.0765 11.5725C44.0765 11.5634 44.1164 11.4704 44.1964 11.2934C44.2764 11.1165 44.3681 10.8965 44.4716 10.6333C44.5187 10.5335 44.5681 10.4246 44.6198 10.3067C44.6716 10.1887 44.721 10.0662 44.768 9.9392C44.7962 9.85753 44.8221 9.80763 44.8456 9.78948C44.8692 9.77133 44.895 9.72143 44.9233 9.63977C44.9703 9.52181 45.015 9.40385 45.0573 9.28589C45.0997 9.16794 45.1444 9.05452 45.1914 8.94563L45.3608 8.52371C45.3796 8.47834 45.4008 8.43297 45.4243 8.3876C45.4478 8.34223 45.469 8.29687 45.4878 8.2515L45.6007 7.9929C45.6289 7.92938 45.643 7.87041 45.643 7.81596V7.74791C45.643 7.70254 45.6383 7.66398 45.6289 7.63222C45.6195 7.60046 45.6054 7.56644 45.5866 7.53014L45.5019 7.38043C45.4549 7.31691 45.4008 7.25567 45.3396 7.19669C45.2784 7.13771 45.2055 7.10368 45.1208 7.09461C45.0644 7.08553 44.9774 7.07873 44.8598 7.07419C44.7421 7.06966 44.6598 7.07646 44.6128 7.09461C44.5657 7.11276 44.5163 7.13317 44.4646 7.15586C44.4128 7.17854 44.3681 7.20803 44.3305 7.24432C44.2929 7.28062 44.2552 7.33506 44.2176 7.40765C44.18 7.48024 44.1517 7.53922 44.1329 7.58459C44.1141 7.6844 44.0929 7.76606 44.0694 7.82957C44.0459 7.89309 44.0106 7.98382 43.9635 8.10178C43.9541 8.11993 43.9377 8.15396 43.9142 8.20386C43.8906 8.25377 43.8648 8.31501 43.8365 8.3876L43.6954 8.78231C43.6201 8.98193 43.5401 9.16794 43.4555 9.34034C43.3708 9.51274 43.2814 9.72596 43.1873 9.98003L42.8627 10.8511L42.5381 11.6949C42.444 11.9399 42.3664 12.1486 42.3052 12.321L42.1288 12.8178C42.0724 12.9766 42.0112 13.1445 41.9453 13.3214C41.8795 13.4983 41.7995 13.7138 41.7054 13.9679ZM48.9498 12.9336C48.9593 12.9699 48.964 12.9903 48.964 12.9949C48.964 12.9994 48.9663 12.9994 48.971 12.9949C48.9757 12.9903 48.9804 12.9881 48.9851 12.9881C48.9898 12.9881 49.0016 13.0017 49.0204 13.0289C49.0298 13.0289 49.0392 13.0266 49.0486 13.0221C49.058 13.0175 49.0722 13.0153 49.091 13.0153H49.1333C49.425 12.9155 49.6649 12.7431 49.8531 12.4981C50.0413 12.2531 50.2106 12.0126 50.3612 11.7767C50.4082 11.7041 50.4388 11.6406 50.4529 11.5862C50.467 11.5317 50.4929 11.4773 50.5305 11.4228C50.54 11.3956 50.5447 11.3639 50.5447 11.3276C50.5447 11.2913 50.5376 11.255 50.5235 11.2187C50.5094 11.1824 50.4859 11.1597 50.4529 11.1506C50.42 11.1416 50.3706 11.1506 50.3047 11.1779C50.2012 11.2414 50.1213 11.2935 50.0648 11.3344C50.0084 11.3752 49.9425 11.4365 49.8672 11.5181C49.7073 11.6814 49.5944 11.8039 49.5285 11.8856C49.4626 11.9673 49.4109 12.033 49.3732 12.083C49.3356 12.1329 49.3003 12.185 49.2674 12.2395C49.2345 12.2939 49.1757 12.3756 49.091 12.4845C49.0628 12.5026 49.0416 12.5366 49.0275 12.5865C49.0134 12.6364 48.9969 12.6705 48.9781 12.6886C48.9781 12.7158 48.9734 12.7408 48.964 12.7635C48.9554 12.7842 48.9546 12.8107 48.9618 12.8428C48.9606 12.846 48.959 12.8536 48.9569 12.8656C48.9522 12.8928 48.9498 12.9155 48.9498 12.9336ZM53.9021 12.9946C53.9021 12.99 53.8974 12.9696 53.888 12.9333C53.8504 12.8517 53.8598 12.7428 53.9163 12.6067C53.9727 12.4706 54.0386 12.3708 54.1138 12.3072C54.1985 12.1984 54.2456 12.1326 54.255 12.1099C54.2644 12.0872 54.2738 12.0668 54.2832 12.0486C54.2926 12.0305 54.3185 11.9965 54.3608 11.9466C54.4032 11.8967 54.5043 11.7901 54.6643 11.6267C54.7395 11.5451 54.8148 11.477 54.8901 11.4226C54.9654 11.3681 55.0547 11.3091 55.1582 11.2456C55.2241 11.2184 55.2735 11.2093 55.3064 11.2184C55.3394 11.2275 55.3629 11.2502 55.377 11.2865C55.3911 11.3228 55.3982 11.3591 55.3982 11.3953C55.3982 11.4316 55.3935 11.4634 55.3841 11.4906C55.3464 11.5451 55.3158 11.6063 55.2923 11.6744C55.2688 11.7424 55.2335 11.8127 55.1865 11.8853C55.0359 12.1212 54.8924 12.3435 54.756 12.5522C54.6196 12.7609 54.4055 12.9152 54.1138 13.015H54.0433C54.0245 13.015 54.008 13.0173 53.9939 13.0218C53.9798 13.0263 53.968 13.0286 53.9586 13.0286C53.9398 13.0014 53.928 12.9878 53.9233 12.9878C53.9186 12.9878 53.9139 12.99 53.9092 12.9946C53.9045 12.9991 53.9021 12.9991 53.9021 12.9946Z" fill="url(#paint0_linear)"/>
<path fill-rule="evenodd" clip-rule="evenodd" d="M25.6602 14.403C26.0723 14.403 26.4599 14.3258 26.823 14.1715C27.186 14.0171 27.5049 13.8048 27.7796 13.5347C28.0544 13.2646 28.2702 12.9511 28.4272 12.5941C28.5842 12.2371 28.6627 11.8561 28.6627 11.4509C28.6627 11.0457 28.5842 10.6646 28.4272 10.3077C28.2702 9.95071 28.0544 9.63717 27.7796 9.36705C27.5049 9.09692 27.186 8.88468 26.823 8.73032C26.4599 8.57596 26.0723 8.49878 25.6602 8.49878C25.2481 8.49878 24.8606 8.57596 24.4975 8.73032C24.1345 8.88468 23.8156 9.09692 23.5408 9.36705C23.2661 9.63717 23.0502 9.95071 22.8932 10.3077C22.7362 10.6646 22.6577 11.0457 22.6577 11.4509C22.6577 11.8561 22.7362 12.2371 22.8932 12.5941C23.0502 12.9511 23.2661 13.2646 23.5408 13.5347C23.8156 13.8048 24.1345 14.0171 24.4975 14.1715C24.8606 14.3258 25.2481 14.403 25.6602 14.403ZM5.76949 31.9997V22.9987H14.0999V31.9997H19.8694V10.1773H14.0999V18.5995H5.76949V10.1773H0V31.9997H5.76949ZM28.3373 17.1527V32H23.0093V17.1527H28.3373Z" fill="#283139"/>
<defs>
<linearGradient id="paint0_linear" x1="17.3664" y1="5.1396" x2="25.057" y2="32.5418" gradientUnits="userSpaceOnUse">
<stop stop-color="#FF3363"/>
<stop offset="1" stop-color="#FF8211"/>
</linearGradient>
</defs>
</svg>
